<svg width="10" height="17" viewBox="0 0 10 17" fill="none" xmlns="http://www.w3.org/2000/svg">
<path d="M9.0172 15.8548C9.15005 15.7199 9.25544 15.5596 9.32735 15.3832C9.39926 15.2068 9.43628 15.0177 9.43628 14.8267C9.43628 14.6357 9.39926 14.4466 9.32735 14.2701C9.25544 14.0937 9.15005 13.9335 9.0172 13.7985L3.45709 8.14022L9.0172 2.48188C9.28514 2.20921 9.43567 1.83938 9.43567 1.45376C9.43567 1.06814 9.28514 0.698307 9.0172 0.425632C8.74926 0.152956 8.38585 -0.000229365 8.00692 -0.000229365C7.62799 -0.000229365 7.26459 0.152956 6.99664 0.425632L0.419085 7.11938C0.286239 7.2543 0.180844 7.41455 0.108933 7.59097C0.0370216 7.76739 7.75835e-06 7.95651 7.75835e-06 8.14751C7.75835e-06 8.3385 0.0370216 8.52762 0.108933 8.70404C0.180844 8.88046 0.286239 9.04072 0.419085 9.17563L6.99664 15.8694C7.54119 16.4236 8.45832 16.4235 9.0172 15.8548Z" fill="white"/>
</svg>
