<svg width="30" height="21" viewBox="0 0 30 21" fill="none" xmlns="http://www.w3.org/2000/svg">
<g clip-path="url(#clip0_1_927)">
<path d="M0 3.24993V6.43666H4.55086L0 3.24993ZM3.77136 20.9917H10.5119V16.2718L3.77136 20.9917ZM18.5981 16.2726V20.9917H25.3378L18.5981 16.2726ZM0 14.5228V17.7095L4.55248 14.5228H0ZM25.3394 -0.0322266H18.5981V4.68764L25.3394 -0.0322266ZM29.11 17.7103V14.5228H24.5567L29.11 17.7103ZM29.11 6.43666V3.24993L24.5583 6.43666H29.11ZM10.5119 -0.0322266H3.77136L10.5119 4.68764V-0.0322266Z" fill="#00247D"/>
<path d="M20.3286 14.5226L28.1818 20.0219C28.5647 19.6263 28.8402 19.1395 28.9824 18.6077L23.1482 14.5226H20.3286ZM10.5121 14.5226H8.78083L0.928409 20.0211C1.3497 20.4497 1.88985 20.7561 2.4955 20.8985L10.5121 15.2851V14.5226ZM18.5982 6.43645H20.3294L28.1818 0.93789C27.753 0.503506 27.21 0.19934 26.6156 0.0605469L18.5982 5.67393V6.43645ZM8.78083 6.43645L0.928409 0.93789C0.545263 1.33341 0.269441 1.8202 0.127075 2.35215L5.9612 6.43645H8.78083Z" fill="#CF1B2B"/>
<path d="M29.11 12.9056H16.9808V20.9917H18.5981V16.2726L25.3378 20.9917H25.8756C26.3051 20.9913 26.7302 20.9053 27.1262 20.7389C27.5221 20.5724 27.8809 20.3288 28.1817 20.0221L20.3285 14.5228H23.1481L28.9822 18.6079C29.0574 18.3354 29.11 18.0532 29.11 17.7572V17.7103L24.5567 14.5228H29.11V12.9056ZM0 12.9056V14.5228H4.55248L0 17.7095V17.7572C0 18.6394 0.35498 19.4375 0.928286 20.0213L8.78071 14.5228H10.5119V15.2853L2.49537 20.8979C2.73311 20.9545 2.97892 20.9917 3.23444 20.9917H3.77136L10.5119 16.2718V20.9917H12.1292V12.9056H0ZM29.11 3.20222C29.1108 2.35473 28.7772 1.54115 28.1817 0.938107L20.3293 6.43666H18.5981V5.67414L26.6154 0.0607635C26.3732 0.00134555 26.1249 -0.0298584 25.8756 -0.0322266H25.3394L18.5981 4.68764V-0.0322266H16.9808V8.05388H29.11V6.43666H24.5583L29.11 3.24993V3.20222ZM10.5119 -0.0322266V4.68764L3.77136 -0.0322266H3.23444C2.80487 -0.0317354 2.3797 0.0543221 1.98374 0.220922C1.58779 0.387523 1.22899 0.631328 0.928286 0.938107L8.78071 6.43666H5.96108L0.126952 2.35237C0.0470262 2.62874 0.00433221 2.91455 0 3.20222L0 3.24993L4.55086 6.43666H0V8.05388H12.1292V-0.0322266H10.5119Z" fill="#EEEEEE"/>
<path d="M16.9808 8.05388V-0.0322266H12.1292V8.05388H0V12.9056H12.1292V20.9917H16.9808V12.9056H29.11V8.05388H16.9808Z" fill="#CF1B2B"/>
</g>
<rect x="0.5" y="0.5" width="28.11" height="19.9592" rx="5.5" stroke="white"/>
<defs>
<clipPath id="clip0_1_927">
<rect width="29.11" height="20.9592" rx="6" fill="white"/>
</clipPath>
</defs>
</svg>
