<svg width="30" height="21" viewBox="0 0 30 21" fill="none" xmlns="http://www.w3.org/2000/svg">
<g clip-path="url(#clip0_1_901)">
<path d="M29.1135 17.7594C29.1135 18.6173 28.7727 19.4401 28.1661 20.0468C27.5594 20.6534 26.7366 20.9942 25.8787 20.9942H3.23484C2.37691 20.9942 1.55411 20.6534 0.947462 20.0468C0.340812 19.4401 0 18.6173 0 17.7594V3.20261C0 2.34468 0.340812 1.52189 0.947462 0.915235C1.55411 0.308586 2.37691 -0.0322266 3.23484 -0.0322266H25.8787C26.7366 -0.0322266 27.5594 0.308586 28.1661 0.915235C28.7727 1.52189 29.1135 2.34468 29.1135 3.20261V17.7594Z" fill="#006600"/>
<path d="M0 6.4375H29.1135V14.5246H0V6.4375Z" fill="#BB1600"/>
<path d="M25.8787 -0.0322266H3.23484C2.37691 -0.0322266 1.55411 0.308586 0.947462 0.915235C0.340812 1.52189 0 2.34468 0 3.20261L0 6.43745H29.1135V3.20261C29.1135 2.34468 28.7727 1.52189 28.1661 0.915235C27.5594 0.308586 26.7366 -0.0322266 25.8787 -0.0322266Z" fill="#141414"/>
<path d="M0 6.4375H29.1135V7.24621H0V6.4375ZM0 13.7159H29.1135V14.5246H0V13.7159Z" fill="#EEEEEE"/>
<path d="M18.6439 3.52904C18.5905 3.4975 18.4935 3.60101 18.0018 4.14689C17.8271 4.34098 17.6088 4.58279 17.367 4.84238C16.8753 5.37047 16.3609 6.02391 16.7337 6.40724L10.8585 16.2824C10.8496 16.2969 10.8431 16.3204 10.8609 16.3527C10.8886 16.3916 10.924 16.4244 10.9649 16.4491C11.0058 16.4737 11.0513 16.4896 11.0986 16.4959H11.1011C11.1383 16.4959 11.1561 16.4789 11.165 16.4643L17.0427 6.58596C17.5489 6.70565 17.8708 5.95193 18.098 5.27909C18.2112 4.94185 18.3196 4.63535 18.4061 4.38951C18.6504 3.69725 18.694 3.55896 18.6439 3.52904Z" fill="#141414"/>
<path d="M18.0382 4.17947C17.8635 4.37356 17.6452 4.61536 17.4026 4.87577C16.6861 5.64566 16.4936 6.11148 16.7807 6.38644L16.7952 6.39938L10.8997 16.3077C10.8965 16.3142 10.9006 16.3247 10.9038 16.3295C10.9516 16.3923 11.0216 16.4343 11.0995 16.4468H11.1011C11.1092 16.4468 11.1197 16.446 11.1238 16.4387L17.0104 6.54494L17.0201 6.52877L17.0379 6.53362C17.4082 6.63876 17.722 6.24653 18.052 5.26233C18.1652 4.9251 18.2736 4.6186 18.3601 4.37194C18.496 3.98781 18.614 3.653 18.614 3.57617C18.5477 3.61337 18.3108 3.87701 18.0382 4.17947Z" fill="white"/>
<path d="M12.3797 6.4077C12.7525 6.02437 12.2389 5.37093 11.7464 4.84285C11.5046 4.58244 11.2863 4.34145 11.1116 4.14736C10.6199 3.60229 10.5229 3.49796 10.4695 3.5295C10.4193 3.56023 10.463 3.69771 10.7064 4.38916C10.793 4.63501 10.9013 4.94151 11.0146 5.27874C11.241 5.9524 11.5629 6.7053 12.0699 6.58562L17.9476 16.464C17.9565 16.4786 17.9743 16.4955 18.0115 16.4955H18.0139C18.0613 16.4893 18.1068 16.4733 18.1477 16.4487C18.1886 16.4241 18.224 16.3913 18.2517 16.3524C18.2687 16.3201 18.263 16.2966 18.2541 16.282L12.3797 6.4077Z" fill="#141414"/>
<path d="M12.3329 6.3866C12.62 6.11164 12.4283 5.64583 11.711 4.87594C11.4684 4.61553 11.2508 4.37373 11.0753 4.17964C10.8028 3.87718 10.565 3.61354 10.4979 3.57715C10.4979 3.65398 10.616 3.98878 10.7519 4.37292C10.8384 4.61957 10.9476 4.92608 11.06 5.26331C11.3907 6.24751 11.7037 6.63973 12.0741 6.5346L12.0919 6.52975L12.1016 6.54592L17.9882 16.4397C17.9922 16.4469 18.0036 16.4478 18.0108 16.4478H18.0125C18.0906 16.4361 18.161 16.3939 18.2082 16.3305C18.2114 16.3248 18.2154 16.3143 18.2122 16.3087L12.3167 6.40035L12.3329 6.3866Z" fill="white"/>
<path d="M14.5713 4.38144L14.5568 4.37012L14.5422 4.38144C12.5269 5.89373 11.5468 7.88396 11.5468 10.4654C11.5468 13.0468 12.5261 15.037 14.5422 16.5501L14.5568 16.5606L14.5713 16.5501C16.5866 15.0378 17.5668 13.0476 17.5668 10.4654C17.5668 7.88315 16.5866 5.89211 14.5713 4.38144Z" fill="#141414"/>
<path d="M16.8851 7.2935C16.3975 6.19122 15.6308 5.23937 14.556 4.43066C13.4837 5.23856 12.7178 6.1888 12.2294 7.28783C12.6539 8.24292 12.8618 9.28373 12.8618 10.4717C12.8618 11.6581 12.6548 12.6965 12.2318 13.6483C12.7203 14.7449 13.4853 15.6936 14.5552 16.5007C15.6276 15.6928 16.3934 14.7425 16.8811 13.6427C16.4597 12.69 16.2535 11.6524 16.2535 10.4717C16.2551 9.28939 16.4622 8.2502 16.8851 7.2935Z" fill="#BB1600"/>
<path d="M14.5567 11.2307C14.8042 11.2307 15.0055 10.8878 15.0055 10.4656C15.0055 10.0435 14.8042 9.69979 14.5567 9.69979C14.3092 9.69979 14.1087 10.0427 14.1087 10.4656C14.1079 10.8878 14.3092 11.2307 14.5567 11.2307ZM14.3699 9.21133C13.9639 8.61369 13.7666 7.85512 13.7666 6.92996C13.7666 6.0048 13.9639 5.24542 14.3699 4.64697V9.21133ZM14.7435 9.21133C15.1487 8.61369 15.3452 7.85512 15.3452 6.92996C15.3452 6.0048 15.1487 5.24542 14.7435 4.64697V9.21133ZM14.3699 11.7183C13.9639 12.3152 13.7666 13.0745 13.7666 13.9997C13.7666 14.9265 13.9639 15.6834 14.3699 16.2819V11.7183ZM14.7435 11.7183C15.1487 12.3152 15.3452 13.0745 15.3452 13.9997C15.3452 14.9265 15.1487 15.6834 14.7435 16.2819V11.7183Z" fill="white"/>
</g>
<rect x="0.291135" y="0.291135" width="28.5313" height="20.3795" rx="3.20249" stroke="white" stroke-width="0.582271"/>
<defs>
<clipPath id="clip0_1_901">
<rect width="29.1135" height="20.9618" rx="3.49363" fill="white"/>
</clipPath>
</defs>
</svg>
