<svg width="30" height="21" viewBox="0 0 30 21" fill="none" xmlns="http://www.w3.org/2000/svg">
<g clip-path="url(#clip0_1_886)">
<path d="M29.1135 17.7594V16.9507H0V17.7594C0 18.6173 0.340812 19.4401 0.947462 20.0468C1.55411 20.6534 2.37691 20.9942 3.23484 20.9942H25.8787C26.7366 20.9942 27.5594 20.6534 28.1661 20.0468C28.7727 19.4401 29.1135 18.6173 29.1135 17.7594Z" fill="#D90001"/>
<path d="M0 13.7158H29.1135V16.9507H0V13.7158Z" fill="#FCDC02"/>
<path d="M0 10.481H29.1135V13.7158H0V10.481Z" fill="#141414"/>
<path d="M0 7.24609H29.1135V10.4809H0V7.24609Z" fill="#D90001"/>
<path d="M0 4.01123H29.1135V7.24607H0V4.01123Z" fill="#FCDC02"/>
<path d="M0 3.20261V4.01132H29.1135V3.20261C29.1135 2.34468 28.7727 1.52189 28.1661 0.915235C27.5594 0.308586 26.7366 -0.0322266 25.8787 -0.0322266H3.23484C2.37691 -0.0322266 1.55411 0.308586 0.947462 0.915235C0.340812 1.52189 0 2.34468 0 3.20261Z" fill="#141414"/>
<path d="M14.5567 13.7158C16.3433 13.7158 17.7916 12.2675 17.7916 10.4809C17.7916 8.69438 16.3433 7.24609 14.5567 7.24609C12.7702 7.24609 11.3219 8.69438 11.3219 10.4809C11.3219 12.2675 12.7702 13.7158 14.5567 13.7158Z" fill="white"/>
<path d="M14.0264 8.07996L13.8104 7.51144C13.8104 7.51144 14.2787 7.34727 14.734 7.51144C15.0809 7.63679 15.1133 8.07996 15.1133 8.07996L14.5706 8.24413L14.0264 8.07996Z" fill="#D90000"/>
<path d="M14.2284 7.99146V7.43831C14.2284 7.43831 14.3182 7.40353 14.5705 7.43831C14.8228 7.47308 14.9368 7.65019 14.9368 7.65019L14.5826 8.08042L14.2284 7.99146Z" fill="#FCDC02"/>
<path d="M14.3507 9.58805C14.2835 9.46998 14.3507 8.77934 14.5439 8.7292C14.7372 8.67906 15.1084 8.07253 14.5439 7.87035C13.9795 7.66817 13.8614 8.25772 13.8614 8.25772C13.8614 8.25772 13.3034 8.42189 13.3729 8.56099C13.44 8.69604 13.9123 8.51085 14.0134 8.62811C14.1145 8.74537 13.9633 8.91439 13.5589 9.38668C13.1546 9.85896 13.4239 10.4987 13.6091 10.6636C13.7943 10.8286 14.0134 10.954 14.1816 11.1052C14.3498 11.2564 14.5439 11.3413 14.5439 11.3413V11.8298C14.5439 11.8298 13.9795 11.8799 13.7102 11.8468C13.4409 11.8136 13.2557 11.9988 13.1877 12.2172C13.1198 12.4355 13.2888 12.5544 13.2888 12.3862C13.2888 12.218 13.3559 12.3182 13.3713 12.4533C13.3867 12.5884 13.5072 12.5374 13.5072 12.3692C13.5072 12.201 13.5743 12.2681 13.5913 12.3522C13.6083 12.4363 13.7263 12.3182 13.7433 12.2172C13.7603 12.1161 13.9115 12.0651 14.0466 12.032C14.1816 11.9988 14.5431 12.0651 14.5431 12.0651V12.9579C14.5431 12.9579 13.7935 13.0081 13.7263 13.11C13.6592 13.2119 14.1808 13.1941 14.1808 13.1941C14.1808 13.1941 14.0288 13.4804 14.0967 13.4973C14.1647 13.5143 14.6361 13.2111 14.8213 13.1771C15.0065 13.1431 15.2928 13.2612 15.3268 13.1771C15.3607 13.093 14.8723 12.9749 14.8213 12.8908C14.7704 12.8067 14.6693 12.032 14.6693 12.032C14.6693 12.032 14.8884 12.0142 15.1586 12.0312C15.4287 12.0481 15.3607 11.812 15.1925 11.5767C15.0243 11.3413 15.1755 11.2734 15.4618 11.3243C15.7481 11.3753 15.9673 11.3243 15.9673 10.869C15.9673 10.4137 14.4178 9.70612 14.3507 9.58805ZM14.9402 11.778H14.755L14.8221 11.4408C14.8221 11.4416 15.0583 11.778 14.9402 11.778Z" fill="#141414"/>
<path d="M14.1314 8.71143C14.1548 8.51006 13.8281 8.52624 13.8111 8.71143C13.7941 8.89663 14.0982 8.99852 14.1314 8.71143Z" fill="#D90000"/>
<path d="M14.3547 9.71015C14.4477 9.67699 15.4918 10.1525 15.77 10.2787C16.0482 10.4048 16.015 10.8852 15.9681 11.1755C15.9212 11.4659 15.757 11.5548 15.757 11.5548C15.757 11.5548 15.5751 11.0858 14.9985 10.8601C14.2245 10.5569 14.0005 9.83631 14.3547 9.71015Z" fill="#9CA69C"/>
<path d="M15.5296 10.2661C15.8701 10.3551 16.5906 10.5184 16.6545 11.2519C16.7176 11.9846 15.9679 12.4149 15.9679 12.4149L16.0933 12.1876L15.8709 12.2636L15.9679 12.0986L15.6177 12.1747C15.6177 12.1747 16.2041 11.7072 15.9995 11.2899C16.0148 11.6377 15.7819 11.7323 15.7819 11.7323C15.7819 11.7323 15.9825 11.2503 15.1123 10.7214L15.3396 10.6632L15.1131 10.4812L15.5935 10.6632L15.3654 10.3801L15.8199 10.5572L15.5296 10.2661Z" fill="#D90000"/>
<path d="M14.2285 8.32663C14.2285 8.34851 14.2198 8.36949 14.2043 8.38496C14.1888 8.40043 14.1678 8.40912 14.146 8.40912C14.1241 8.40912 14.1031 8.40043 14.0876 8.38496C14.0722 8.36949 14.0635 8.34851 14.0635 8.32663C14.0635 8.30475 14.0722 8.28377 14.0876 8.2683C14.1031 8.25283 14.1241 8.24414 14.146 8.24414C14.1678 8.24414 14.1888 8.25283 14.2043 8.2683C14.2198 8.28377 14.2285 8.30475 14.2285 8.32663Z" fill="#9CA69C"/>
</g>
<rect x="0.291135" y="0.291135" width="28.5313" height="20.3795" rx="3.20249" stroke="white" stroke-width="0.582271"/>
<defs>
<clipPath id="clip0_1_886">
<rect width="29.1135" height="20.9618" rx="3.49363" fill="white"/>
</clipPath>
</defs>
</svg>
