<svg width="34" height="23" viewBox="0 0 34 23" fill="none" xmlns="http://www.w3.org/2000/svg">
<g clip-path="url(#clip0_1_878)">
<rect x="0.582275" y="0.582031" width="32.1913" height="20.9618" rx="4.4918" fill="white"/>
<path d="M0.582275 7.76892C0.582275 5.25327 0.582275 3.99545 1.07185 3.0346C1.5025 2.18941 2.18966 1.50225 3.03484 1.07161C3.99569 0.582031 5.25351 0.582031 7.76916 0.582031H11.3127V21.5438H7.76916C5.25352 21.5438 3.99569 21.5438 3.03484 21.0542C2.18966 20.6236 1.5025 19.9364 1.07185 19.0912C0.582275 18.1304 0.582275 16.8725 0.582275 14.3569V7.76892Z" fill="#008000"/>
<path d="M22.2926 0.582031H25.8361C28.3518 0.582031 29.6096 0.582031 30.5705 1.07161C31.4156 1.50225 32.1028 2.18941 32.5334 3.0346C33.023 3.99545 33.023 5.25327 33.023 7.76892V14.3569C33.023 16.8725 33.023 18.1304 32.5334 19.0912C32.1028 19.9364 31.4156 20.6236 30.5705 21.0542C29.6096 21.5438 28.3518 21.5438 25.8361 21.5438H22.2926V0.582031Z" fill="#008000"/>
</g>
<rect x="0.29114" y="0.290896" width="32.7735" height="21.544" rx="4.78294" stroke="white" stroke-width="0.582271"/>
<defs>
<clipPath id="clip0_1_878">
<rect x="0.582275" y="0.582031" width="32.1913" height="20.9618" rx="4.4918" fill="white"/>
</clipPath>
</defs>
</svg>
