<svg width="30" height="21" viewBox="0 0 30 21" fill="none" xmlns="http://www.w3.org/2000/svg">
<g clip-path="url(#clip0_1_881)">
<path d="M25.8787 -0.0322266H3.23484C2.37691 -0.0322266 1.55411 0.308586 0.947462 0.915235C0.340812 1.52189 0 2.34468 0 3.20261L0 7.24616H29.1135V3.20261C29.1135 2.34468 28.7727 1.52189 28.1661 0.915235C27.5594 0.308586 26.7366 -0.0322266 25.8787 -0.0322266Z" fill="#CC212D"/>
<path d="M12.4727 13.7158H16.6659L14.5697 12.1922L12.4727 13.7158ZM15.3736 9.71994H17.9736L15.8701 11.2476L16.6715 13.7158H29.1135V7.24609H14.5697L15.3736 9.71994ZM13.2693 11.2476L11.1659 9.71994H13.7659L14.5697 7.24609H0V13.7158H12.4671L13.2693 11.2476Z" fill="#FBD116"/>
<path d="M16.6732 13.7207L16.6659 13.7158H12.4719L12.4646 13.7207L12.4671 13.7158H0V17.7594C0 18.6173 0.340812 19.4401 0.947462 20.0467C1.55411 20.6534 2.37691 20.9942 3.23484 20.9942H25.8787C26.7366 20.9942 27.5594 20.6534 28.1661 20.0467C28.7727 19.4401 29.1135 18.6173 29.1135 17.7594V13.7158H16.6715L16.6732 13.7207Z" fill="#288541"/>
<path d="M11.1658 9.71994L13.2692 11.2476L12.467 13.7158L12.4654 13.7206L12.4726 13.7158L14.5696 12.1922L16.6658 13.7158L16.6731 13.7206L16.6715 13.7158L15.87 11.2476L17.9735 9.71994H15.3735L14.5696 7.24609L13.7658 9.71994H11.1658Z" fill="black"/>
</g>
<rect x="0.291135" y="0.291135" width="28.5313" height="20.3795" rx="3.20249" stroke="white" stroke-width="0.582271"/>
<defs>
<clipPath id="clip0_1_881">
<rect width="29.1135" height="20.9618" rx="3.49363" fill="white"/>
</clipPath>
</defs>
</svg>
