<svg width="30" height="21" viewBox="0 0 30 21" fill="none" xmlns="http://www.w3.org/2000/svg">
<g clip-path="url(#clip0_1_922)">
<path d="M28.6612 1.585C28.1009 0.62194 27.0699 -0.0322266 25.8756 -0.0322266H14.555V1.585H28.6612ZM0 16.14H29.11V17.7572H0V16.14ZM14.555 9.67111H29.11V11.2883H14.555V9.67111ZM14.555 6.43666H29.11V8.05388H14.555V6.43666ZM0 12.9056H29.11V14.5228H0V12.9056ZM3.23444 20.9917H25.8756C27.0699 20.9917 28.1009 20.3375 28.6612 19.3744H0.448779C1.00915 20.3375 2.04013 20.9917 3.23444 20.9917ZM14.555 3.20222H29.11V4.81944H14.555V3.20222Z" fill="#B22334"/>
<path d="M0.0549856 18.3062C0.0684624 18.3817 0.0843651 18.4564 0.102694 18.5302C0.124257 18.6111 0.149054 18.6909 0.177086 18.7696C0.249052 18.979 0.336382 19.1811 0.446353 19.3704L0.448779 19.3744H28.6612L28.6628 19.3712C28.7724 19.1811 28.8624 18.9803 28.9313 18.772C28.9838 18.62 29.0249 18.4643 29.0542 18.3062C29.0874 18.1283 29.11 17.9456 29.11 17.7572H0C0 17.9456 0.0226411 18.1275 0.0549856 18.3062ZM0 14.5227H29.11V16.14H0V14.5227ZM0 11.2883V12.9055H29.11V11.2883H14.555H0ZM14.555 8.05385H29.11V9.67107H14.555V8.05385ZM14.555 4.81941H29.11V6.43663H14.555V4.81941ZM0.103502 2.42915C0.123718 2.34667 0.152019 2.26824 0.177894 2.18899C0.149994 2.26805 0.125178 2.34816 0.103502 2.42915ZM14.555 3.20218H29.11C29.11 3.01378 29.0874 2.83103 29.0542 2.65233C29.0259 2.49392 28.9845 2.33813 28.9305 2.18657C28.8615 1.97739 28.7712 1.7758 28.6612 1.58496H14.555V3.20218Z" fill="#EEEEEE"/>
<path d="M14.555 -0.0322266H3.23444C2.37662 -0.0322266 1.55392 0.308544 0.947347 0.91512C0.340771 1.5217 0 2.34439 0 3.20222L0 11.2883H14.555V-0.0322266Z" fill="#3C3B6E"/>
<path d="M1.61816 2.17201L2.11789 2.53508L1.92705 3.12132L2.42597 2.75906L2.92569 3.12132L2.73486 2.53508L3.23458 2.17201H2.6168L2.42597 1.58496L2.23594 2.17201H1.61816ZM3.23539 3.78923L3.73511 4.1523L3.54428 4.73854L4.04319 4.37629L4.54291 4.73854L4.35208 4.1523L4.8518 3.78923H4.23402L4.04319 3.20218L3.85317 3.78923H3.23539ZM6.46983 3.78923L6.96955 4.1523L6.77872 4.73854L7.27763 4.37629L7.77736 4.73854L7.58652 4.1523L8.08624 3.78923H7.46847L7.27763 3.20218L7.08761 3.78923H6.46983ZM9.70428 3.78923L10.204 4.1523L10.0132 4.73854L10.5121 4.37629L11.0118 4.73854L10.821 4.1523L11.3207 3.78923H10.7029L10.5121 3.20218L10.3221 3.78923H9.70428ZM3.23539 7.02368L3.73511 7.38675L3.54428 7.97299L4.04319 7.61073L4.54291 7.97299L4.35208 7.38675L4.8518 7.02368H4.23402L4.04319 6.43663L3.85317 7.02368H3.23539ZM6.46983 7.02368L6.96955 7.38675L6.77872 7.97299L7.27763 7.61073L7.77736 7.97299L7.58652 7.38675L8.08624 7.02368H7.46847L7.27763 6.43663L7.08761 7.02368H6.46983ZM9.70428 7.02368L10.204 7.38675L10.0132 7.97299L10.5121 7.61073L11.0118 7.97299L10.821 7.38675L11.3207 7.02368H10.7029L10.5121 6.43663L10.3221 7.02368H9.70428ZM4.85261 2.17201L5.35233 2.53508L5.1615 3.12132L5.66041 2.75906L6.16013 3.12132L5.9693 2.53508L6.46902 2.17201H5.85124L5.66041 1.58496L5.47039 2.17201H4.85261ZM8.08705 2.17201L8.58677 2.53508L8.39594 3.12132L8.89486 2.75906L9.39458 3.12132L9.20375 2.53508L9.70347 2.17201H9.08569L8.89486 1.58496L8.70483 2.17201H8.08705ZM11.3215 2.17201L11.8212 2.53508L11.6304 3.12132L12.1293 2.75906L12.629 3.12132L12.4382 2.53508L12.9379 2.17201H12.3201L12.1293 1.58496L11.9393 2.17201H11.3215ZM1.61816 5.40646L2.11789 5.76952L1.92705 6.35577L2.42597 5.99351L2.92569 6.35577L2.73486 5.76952L3.23458 5.40646H2.6168L2.42597 4.81941L2.23594 5.40646H1.61816ZM5.1615 6.35577L5.66041 5.99351L6.16013 6.35577L5.9693 5.76952L6.46902 5.40646H5.85124L5.66041 4.81941L5.47039 5.40646H4.85261L5.35233 5.76952L5.1615 6.35577ZM8.08705 5.40646L8.58677 5.76952L8.39594 6.35577L8.89486 5.99351L9.39458 6.35577L9.20375 5.76952L9.70347 5.40646H9.08569L8.89486 4.81941L8.70483 5.40646H8.08705ZM11.3215 5.40646L11.8212 5.76952L11.6304 6.35577L12.1293 5.99351L12.629 6.35577L12.4382 5.76952L12.9379 5.40646H12.3201L12.1293 4.81941L11.9393 5.40646H11.3215ZM1.61816 8.6409L2.11789 9.00397L1.92705 9.59021L2.42597 9.22795L2.92569 9.59021L2.73486 9.00397L3.23458 8.6409H2.6168L2.42597 8.05385L2.23594 8.6409H1.61816ZM5.1615 9.59021L5.66041 9.22795L6.16013 9.59021L5.9693 9.00397L6.46902 8.6409H5.85124L5.66041 8.05385L5.47039 8.6409H4.85261L5.35233 9.00397L5.1615 9.59021ZM8.08705 8.6409L8.58677 9.00397L8.39594 9.59021L8.89486 9.22795L9.39458 9.59021L9.20375 9.00397L9.70347 8.6409H9.08569L8.89486 8.05385L8.70483 8.6409H8.08705ZM11.3215 8.6409L11.8212 9.00397L11.6304 9.59021L12.1293 9.22795L12.629 9.59021L12.4382 9.00397L12.9379 8.6409H12.3201L12.1293 8.05385L11.9393 8.6409H11.3215Z" fill="white"/>
</g>
<rect x="0.5" y="0.5" width="28.11" height="19.9592" rx="5.5" stroke="white"/>
<defs>
<clipPath id="clip0_1_922">
<rect width="29.11" height="20.9592" rx="6" fill="white"/>
</clipPath>
</defs>
</svg>
